<svg width="315" height="318" viewBox="0 0 315 318" fill="none" xmlns="http://www.w3.org/2000/svg">
<path d="M26.0018 83.4715L78.5018 55.471C96.8351 45.3043 133.502 34.6715 133.502 73.4715C133.502 98.0144 133.16 122.513 132.118 146.971C131.072 171.506 129.321 196.002 126.502 220.469C126.502 220.469 114.802 309.667 82.0018 312.467C41.0018 315.967 5.50179 274.969 5.00179 237.969C4.60179 208.369 71.5018 189.636 105.002 183.969C117.544 181.851 137.516 179.25 157.24 176.815C174.666 174.5 192.158 171.838 209.49 168.911C242.99 163.245 309.89 144.51 309.49 114.91C310.929 69.4289 292.865 38.4165 255.402 12.6127M181.291 211.162C181.507 198.901 181.853 186.652 182.375 174.412C184.471 125.229 176.155 -31.2516 255.402 12.6942" stroke="black" stroke-width="10" stroke-linecap="round"/>
</svg>
